<svg id="SvgjsSvg1006" width="5000px" height="1152.7777777777778px" xmlns="http://www.w3.org/2000/svg" version="1.1" xmlns:xlink="http://www.w3.org/1999/xlink" xmlns:svgjs="http://svgjs.com/svgjs" viewBox="0 0 360 83"><defs id="SvgjsDefs1007"></defs><g id="SvgjsG1009" transform="rotate(0 40 40)"><svg height="80" viewBox="0 0 392 392" xmlns="http://www.w3.org/2000/svg" version="1.1" xmlns:xlink="http://www.w3.org/1999/xlink" xmlns:svgjs="http://svgjs.com/svgjs" preserveAspectRatio="none" width="80" x="0" y="0"><g><svg data-color="1" data-bbox="0 0 392 392" xmlns="http://www.w3.org/2000/svg" viewBox="0 0 392 392" data-type="shape" fill="#84c20e">
    <g>
        <path fill-rule="evenodd" d="M372.403 110.47C384.958 136.314 392 165.334 392 196c0 108.248-87.752 196-196 196S0 304.248 0 196 87.752 0 196 0c67.981 0 127.878 34.61 163.034 87.17L192.71 251.07l-79.016-66.772a2.562 2.562 0 0 0-3.619.303L95.086 201a2.564 2.564 0 0 0 .33 3.616l97.337 81.373c.43.361.941.56 1.459.601a2.558 2.558 0 0 0 2.201-.907l175.99-175.214z"></path>
    </g>
</svg></g><defs id="SvgjsDefs1008"></defs></svg></g><g id="SvgjsG1011" transform="rotate(0 229 39.9921875)"><svg xmlns="http://www.w3.org/2000/svg" xmlns:xlink="http://www.w3.org/1999/xlink" width="262" viewBox="-0.36000001430511475 8.0600004196167 262.0099792480469 27.18000030517578" overflow="visible" style="overflow: visible;"
                                                                                                                 version="1.1" xmlns:svgjs="http://svgjs.com/svgjs" preserveAspectRatio="none" height="27.171875" x="98" y="26.40625" fill="#000000" stroke="none"><path stroke="none" fill="#042822" d="M14.58 33.70L14.58 33.70L14.58 33.70Q14.11 31.75 13.46 27.90L13.46 27.90L13.46 27.90Q11.99 28.01 10.44 28.01L10.44 28.01L10.44 28.01Q8.93 28.01 7.38 27.90L7.38 27.90L7.38 27.90Q4.72 34.31 4.39 35.24L4.39 35.24L4.39 35.24Q-0.36 35.14-0.36 32.98L-0.36 32.98L-0.36 32.98Q-0.36 32.44 0.11 31.45L0.11 31.45L0.11 31.45Q0.58 30.46 1.98 27.72L1.98 27.72L1.98 27.72Q3.38 24.98 4.68 22.21L4.68 22.21L4.68 22.21Q8.86 13.28 9.61 10.66L9.61 10.66L9.61 10.66Q11.41 10.44 12.56 10.44L12.56 10.44L12.56 10.44Q15.55 10.44 15.98 12.78L15.98 12.78L15.98 12.78Q17.50 21.02 18.25 24.23L18.25 24.23L18.25 24.23Q19.91 31.46 20.77 34.27L20.77 34.27L20.77 34.27Q18.61 35.14 16.92 35.14L16.92 35.14L16.92 35.14Q14.90 35.14 14.58 33.70ZM12.06 15.01L12.06 15.01L12.06 15.01Q10.69 19.51 8.75 24.44L8.75 24.44L8.75 24.44Q9.90 24.52 11.12 24.52L11.12 24.52L11.12 24.52Q12.49 24.52 13.00 24.44L13.00 24.44L13.00 24.44Q12.42 19.69 12.06 15.01ZM28.01 8.06L28.01 8.06L28.01 8.06Q30.74 8.06 30.74 11.30L30.74 11.30L30.74 11.30Q30.74 12.74 29.59 21.04L29.59 21.04L29.59 21.04Q28.44 29.34 28.44 30.20L28.44 30.20L28.44 30.20Q28.44 31.64 29.59 32.36L29.59 32.36L29.59 32.36Q29.20 33.48 28.31 34.31L28.31 34.31L28.31 34.31Q27.43 35.14 26.06 35.14L26.06 35.14L26.06 35.14Q22.86 35.14 22.86 31.86L22.86 31.86L22.86 31.86Q22.86 30.28 24.03 22.21L24.03 22.21L24.03 22.21Q25.20 14.15 25.20 12.74L25.20 12.74L25.20 12.74Q25.20 11.20 24.08 11.05L24.08 11.05L24.08 11.05Q24.26 9.79 25.36 8.93L25.36 8.93L25.36 8.93Q26.46 8.06 28.01 8.06ZM38.38 26.06L38.38 26.06L38.38 26.06Q39.82 26.06 40.64 24.86L40.64 24.86L40.64 24.86Q41.47 23.65 41.47 22.07L41.47 22.07L41.47 22.07Q41.47 21.42 41.11 20.99L41.11 20.99L41.11 20.99Q40.75 20.56 40.28 20.56L40.28 20.56L40.28 20.56Q39.42 20.56 38.72 22.05L38.72 22.05L38.72 22.05Q38.02 23.54 37.84 26.03L37.84 26.03L37.84 26.03Q38.02 26.06 38.38 26.06ZM43.74 29.95L43.74 29.95L43.74 29.95Q44.53 30.35 45.09 30.96L45.09 30.96L45.09 30.96Q45.65 31.57 45.65 32.18L45.65 32.18L45.65 32.18Q45.65 33.44 43.79 34.29L43.79 34.29L43.79 34.29Q41.94 35.14 39.53 35.14L39.53 35.14L39.53 35.14Q36.43 35.14 34.22 33.61L34.22 33.61L34.22 33.61Q32.00 32.08 32.00 28.87L32.00 28.87L32.00 28.87Q32.00 24.34 34.90 20.83L34.90 20.83L34.90 20.83Q37.80 17.32 42.30 17.32L42.30 17.32L42.30 17.32Q44.35 17.32 45.77 18.47L45.77 18.47L45.77 18.47Q47.20 19.62 47.20 21.64L47.20 21.64L47.20 21.64Q47.20 24.84 44.80 26.62L44.80 26.62L44.80 26.62Q42.41 28.40 38.77 28.40L38.77 28.40L38.77 28.40Q38.34 28.40 37.69 28.33L37.69 28.33L37.69 28.33Q37.69 31.90 40.54 31.90L40.54 31.90L40.54 31.90Q42.41 31.90 43.74 29.95ZM49.50 21.46L49.50 21.46L49.50 21.46Q49.36 20.66 49.36 20.20L49.36 20.20L49.36 20.20Q49.36 18.97 50.35 18.09L50.35 18.09L50.35 18.09Q51.34 17.21 52.63 17.21L52.63 17.21L52.63 17.21Q53.24 17.21 53.77 17.39L53.77 17.39L53.77 17.39Q54.29 17.57 54.70 18.04L54.70 18.04L54.70 18.04Q55.12 18.50 55.40 18.85L55.40 18.85L55.40 18.85Q55.69 19.19 56.00 19.98L56.00 19.98L56.00 19.98Q56.30 20.77 56.43 21.10L56.43 21.10L56.43 21.10Q56.56 21.42 56.84 22.36L56.84 22.36L56.84 22.36Q57.13 23.29 57.20 23.47L57.20 23.47L57.20 23.47Q58.64 21.31 58.93 17.42L58.93 17.42L58.93 17.42Q59.29 17.35 60.08 17.35L60.08 17.35L60.08 17.35Q61.67 17.35 62.62 18.04L62.62 18.04L62.62 18.04Q63.58 18.72 63.58 19.84L63.58 19.84L63.58 19.84Q63.58 20.34 63.31 20.95L63.31 20.95L63.31 20.95Q63.04 21.56 62.73 22.05L62.73 22.05L62.73 22.05Q62.42 22.54 61.76 23.26L61.76 23.26L61.76 23.26Q61.09 23.98 60.79 24.30L60.79 24.30L60.79 24.30Q60.48 24.62 59.71 25.36L59.71 25.36L59.71 25.36Q58.93 26.10 58.86 26.17L58.86 26.17L58.86 26.17Q59.00 26.46 59.36 27.20L59.36 27.20L59.36 27.20Q59.72 27.94 59.87 28.19L59.87 28.19L59.87 28.19Q60.01 28.44 60.34 29.03L60.34 29.03L60.34 29.03Q60.66 29.63 60.84 29.86L60.84 29.86L60.84 29.86Q61.02 30.10 61.36 30.47L61.36 30.47L61.36 30.47Q61.70 30.85 61.99 31.00L61.99 31.00L61.99 31.00Q62.28 31.14 62.68 31.27L62.68 31.27L62.68 31.27Q63.07 31.39 63.50 31.39L63.50 31.39L63.50 31.39Q63.65 32.11 63.65 32.62L63.65 32.62L63.65 32.62Q63.65 33.73 62.77 34.43L62.77 34.43L62.77 34.43Q61.88 35.14 60.62 35.14L60.62 35.14L60.62 35.14Q58.46 35.14 57.51 33.80L57.51 33.80L57.51 33.80Q56.56 32.47 55.37 28.84L55.37 28.84L55.37 28.84Q52.96 32.83 52.74 34.99L52.74 34.99L52.74 34.99Q52.38 35.03 51.77 35.03L51.77 35.03L51.77 35.03Q50.15 35.03 49.23 34.45L49.23 34.45L49.23 34.45Q48.31 33.88 48.31 32.90L48.31 32.90L48.31 32.90Q48.31 32.47 48.51 31.97L48.51 31.97L48.51 31.97Q48.71 31.46 49.14 30.92L49.14 30.92L49.14 30.92Q49.57 30.38 49.91 29.97L49.91 29.97L49.91 29.97Q50.26 29.56 50.96 28.94L50.96 28.94L50.96 28.94Q51.66 28.33 51.95 28.08L51.95 28.08L51.95 28.08Q52.24 27.83 52.99 27.23L52.99 27.23L52.99 27.23Q53.75 26.64 53.82 26.57L53.82 26.57L53.82 26.57Q53.68 26.28 53.35 25.56L53.35 25.56L53.35 25.56Q53.03 24.84 52.88 24.57L52.88 24.57L52.88 24.57Q52.74 24.30 52.45 23.74L52.45 23.74L52.45 23.74Q52.16 23.18 51.98 22.95L51.98 22.95L51.98 22.95Q51.80 22.72 51.50 22.36L51.50 22.36L51.50 22.36Q51.19 22.00 50.90 21.85L50.90 21.85L50.90 21.85Q50.62 21.71 50.26 21.58L50.26 21.58L50.26 21.58Q49.90 21.46 49.50 21.46ZM75.71 27.97L75.71 27.97L76.61 21.89L76.61 21.89Q75.53 20.59 74.41 20.59L74.41 20.59L74.41 20.59Q72.90 20.59 72.04 22.79L72.04 22.79L72.04 22.79Q71.17 24.98 71.17 27.72L71.17 27.72L71.17 27.72Q71.17 29.52 71.57 30.73L71.57 30.73L71.57 30.73Q71.96 31.93 72.72 31.93L72.72 31.93L72.72 31.93Q73.40 31.93 74.27 30.83L74.27 30.83L74.27 30.83Q75.13 29.74 75.71 27.97ZM75.46 31.03L75.46 31.03L75.46 31.03Q74.45 33.01 73.01 34.07L73.01 34.07L73.01 34.07Q71.57 35.14 70.02 35.14L70.02 35.14L70.02 35.14Q68.00 35.14 66.74 33.50L66.74 33.50L66.74 33.50Q65.48 31.86 65.48 28.73L65.48 28.73L65.48 28.73Q65.48 25.92 66.53 23.40L66.53 23.40L66.53 23.40Q67.57 20.88 69.82 19.13L69.82 19.13L69.82 19.13Q72.07 17.39 75.10 17.39L75.10 17.39L75.10 17.39Q78.77 17.39 82.26 19.76L82.26 19.76L82.26 19.76Q80.64 27.40 80.64 30.31L80.64 30.31L80.64 30.31Q80.64 31.68 81.79 32.40L81.79 32.40L81.79 32.40Q80.86 35.14 78.19 35.14L78.19 35.14L78.19 35.14Q76.72 35.14 76.07 34.34L76.07 34.34L76.07 34.34Q75.42 33.55 75.42 31.93L75.42 31.93L75.42 31.93Q75.42 31.36 75.46 31.03ZM91.44 25.67L91.44 25.67L91.44 25.67Q90.94 29.92 90.94 32.18L90.94 32.18L90.94 32.18Q90.94 33.01 91.08 34.24L91.08 34.24L91.08 34.24Q89.71 34.85 88.06 34.85L88.06 34.85L88.06 34.85Q85.28 34.85 85.28 32.83L85.28 32.83L85.28 32.83Q85.28 32.65 86.00 27.95L86.00 27.95L86.00 27.95Q86.72 23.26 86.72 22.14L86.72 22.14L86.72 22.14Q86.72 20.56 85.61 20.30L85.61 20.30L85.61 20.30Q85.82 18.94 86.89 18.13L86.89 18.13L86.89 18.13Q87.95 17.32 89.24 17.32L89.24 17.32L89.24 17.32Q92.30 17.32 92.30 20.30L92.30 20.30L92.30 20.30Q92.30 20.38 92.29 20.57L92.29 20.57L92.29 20.57Q92.27 20.77 92.27 20.88L92.27 20.88L92.27 20.88Q93.35 19.19 94.88 18.29L94.88 18.29L94.88 18.29Q96.41 17.39 97.81 17.39L97.81 17.39L97.81 17.39Q99.72 17.39 100.76 18.56L100.76 18.56L100.76 18.56Q101.81 19.73 101.81 21.60L101.81 21.60L101.81 21.60Q101.81 22.25 101.07 25.83L101.07 25.83L101.07 25.83Q100.33 29.41 100.33 30.24L100.33 30.24L100.33 30.24Q100.33 31.68 101.56 32.40L101.56 32.40L101.56 32.40Q101.12 33.70 100.08 34.42L100.08 34.42L100.08 34.42Q99.04 35.14 97.81 35.14L97.81 35.14L97.81 35.14Q96.52 35.14 95.62 34.33L95.62 34.33L95.62 34.33Q94.72 33.52 94.72 32.11L94.72 32.11L94.72 32.11Q94.72 30.96 95.40 27.49L95.40 27.49L95.40 27.49Q96.08 24.01 96.08 22.68L96.08 22.68L96.08 22.68Q96.08 20.66 94.90 20.66L94.90 20.66L94.90 20.66Q94.03 20.66 92.97 22.18L92.97 22.18L92.97 22.18Q91.91 23.69 91.44 25.67ZM114.52 27.97L114.52 27.97L115.38 21.89L115.38 21.89Q114.30 20.59 113.04 20.59L113.04 20.59L113.04 20.59Q111.74 20.59 110.83 22.55L110.83 22.55L110.83 22.55Q109.91 24.52 109.91 27.54L109.91 27.54L109.91 27.54Q109.91 31.93 111.49 31.93L111.49 31.93L111.49 31.93Q112.14 31.93 113.04 30.82L113.04 30.82L113.04 30.82Q113.94 29.70 114.52 27.97ZM115.78 19.12L115.78 19.12L115.78 19.12Q116.03 17.68 116.26 15.44L116.26 15.44L116.26 15.44Q116.50 13.21 116.50 12.82L116.50 12.82L116.50 12.82Q116.50 11.27 115.38 11.05L115.38 11.05L115.38 11.05Q115.52 9.79 116.66 8.93L116.66 8.93L116.66 8.93Q117.79 8.06 119.27 8.06L119.27 8.06L119.27 8.06Q122.04 8.06 122.04 11.27L122.04 11.27L122.04 11.27Q122.04 12.53 120.89 20.99L120.89 20.99L120.89 20.99Q119.74 29.45 119.74 30.24L119.74 30.24L119.74 30.24Q119.74 31.61 120.85 32.36L120.85 32.36L120.85 32.36Q119.92 35.14 117.22 35.14L117.22 35.14L117.22 35.14Q114.16 35.14 114.16 31.82L114.16 31.82L114.16 31.82Q114.16 31.28 114.19 31.03L114.19 31.03L114.19 31.03Q113.18 33.01 111.74 34.07L111.74 34.07L111.74 34.07Q110.30 35.14 108.76 35.14L108.76 35.14L108.76 35.14Q106.74 35.14 105.48 33.50L105.48 33.50L105.48 33.50Q104.22 31.86 104.22 28.73L104.22 28.73L104.22 28.73Q104.22 24.05 106.45 20.70L106.45 20.70L106.45 20.70Q108.68 17.35 111.96 17.35L111.96 17.35L111.96 17.35Q113.76 17.35 115.78 19.12ZM129.67 26.06L129.67 26.06L129.67 26.06Q131.11 26.06 131.94 24.86L131.94 24.86L131.94 24.86Q132.77 23.65 132.77 22.07L132.77 22.07L132.77 22.07Q132.77 21.42 132.41 20.99L132.41 20.99L132.41 20.99Q132.05 20.56 131.58 20.56L131.58 20.56L131.58 20.56Q130.72 20.56 130.01 22.05L130.01 22.05L130.01 22.05Q129.31 23.54 129.13 26.03L129.13 26.03L129.13 26.03Q129.31 26.06 129.67 26.06ZM135.04 29.95L135.04 29.95L135.04 29.95Q135.83 30.35 136.39 30.96L136.39 30.96L136.39 30.96Q136.94 31.57 136.94 32.18L136.94 32.18L136.94 32.18Q136.94 33.44 135.09 34.29L135.09 34.29L135.09 34.29Q133.24 35.14 130.82 35.14L130.82 35.14L130.82 35.14Q127.73 35.14 125.51 33.61L125.51 33.61L125.51 33.61Q123.30 32.08 123.30 28.87L123.30 28.87L123.30 28.87Q123.30 24.34 126.20 20.83L126.20 20.83L126.20 20.83Q129.10 17.32 133.60 17.32L133.60 17.32L133.60 17.32Q135.65 17.32 137.07 18.47L137.07 18.47L137.07 18.47Q138.49 19.62 138.49 21.64L138.49 21.64L138.49 21.64Q138.49 24.84 136.10 26.62L136.10 26.62L136.10 26.62Q133.70 28.40 130.07 28.40L130.07 28.40L130.07 28.40Q129.64 28.40 128.99 28.33L128.99 28.33L128.99 28.33Q128.99 31.90 131.83 31.90L131.83 31.90L131.83 31.90Q133.70 31.90 135.04 29.95ZM146.77 26.39L146.77 26.39L146.77 26.39Q146.34 30.46 146.34 32.51L146.34 32.51L146.34 32.51Q146.34 33.16 146.48 34.24L146.48 34.24L146.48 34.24Q145.15 34.85 143.42 34.85L143.42 34.85L143.42 34.85Q140.69 34.85 140.69 32.83L140.69 32.83L140.69 32.83Q140.69 32.54 141.41 27.88L141.41 27.88L141.41 27.88Q142.13 23.22 142.13 22.14L142.13 22.14L142.13 22.14Q142.13 20.56 141.01 20.30L141.01 20.30L141.01 20.30Q141.16 19.12 142.15 18.22L142.15 18.22L142.15 18.22Q143.14 17.32 144.72 17.32L144.72 17.32L144.72 17.32Q147.71 17.32 147.71 20.27L147.71 20.27L147.71 20.27Q147.71 20.77 147.56 21.60L147.56 21.60L147.56 21.60Q148.61 19.48 149.92 18.41L149.92 18.41L149.92 18.41Q151.24 17.35 152.39 17.35L152.39 17.35L152.39 17.35Q154.22 17.35 154.22 19.26L154.22 19.26L154.22 19.26Q154.22 20.09 153.83 20.95L153.83 20.95L153.83 20.95Q153.43 21.82 152.82 22.32L152.82 22.32L152.82 22.32Q151.70 21.42 150.59 21.42L150.59 21.42L150.59 21.42Q148.07 21.42 146.77 26.39ZM166.72 14.18L166.72 14.18L166.72 14.18Q164.23 14.18 162.67 17.10L162.67 17.10L162.67 17.10Q161.10 20.02 161.10 24.16L161.10 24.16L161.10 24.16Q161.10 27.32 162.13 29.41L162.13 29.41L162.13 29.41Q163.15 31.50 165.31 31.50L165.31 31.50L165.31 31.50Q167.90 31.50 169.43 28.48L169.43 28.48L169.43 28.48Q170.96 25.45 170.96 21.31L170.96 21.31L170.96 21.31Q170.96 18.25 169.94 16.22L169.94 16.22L169.94 16.22Q168.91 14.18 166.72 14.18ZM164.30 35.14L164.30 35.14L164.30 35.14Q159.95 35.14 157.50 32.49L157.50 32.49L157.50 32.49Q155.05 29.84 155.05 25.31L155.05 25.31L155.05 25.31Q155.05 19.01 158.56 14.78L158.56 14.78L158.56 14.78Q162.07 10.55 167.69 10.55L167.69 10.55L167.69 10.55Q172.08 10.55 174.56 13.14L174.56 13.14L174.56 13.14Q177.05 15.73 177.05 20.30L177.05 20.30L177.05 20.30Q177.05 26.50 173.52 30.82L173.52 30.82L173.52 30.82Q169.99 35.14 164.30 35.14ZM185.33 25.67L185.33 25.67L185.33 25.67Q184.82 29.92 184.82 32.18L184.82 32.18L184.82 32.18Q184.82 33.01 184.97 34.24L184.97 34.24L184.97 34.24Q183.60 34.85 181.94 34.85L181.94 34.85L181.94 34.85Q179.17 34.85 179.17 32.83L179.17 32.83L179.17 32.83Q179.17 32.65 179.89 27.95L179.89 27.95L179.89 27.95Q180.61 23.26 180.61 22.14L180.61 22.14L180.61 22.14Q180.61 20.56 179.50 20.30L179.50 20.30L179.50 20.30Q179.71 18.94 180.77 18.13L180.77 18.13L180.77 18.13Q181.84 17.32 183.13 17.32L183.13 17.32L183.13 17.32Q186.19 17.32 186.19 20.30L186.19 20.30L186.19 20.30Q186.19 20.38 186.17 20.57L186.17 20.57L186.17 20.57Q186.16 20.77 186.16 20.88L186.16 20.88L186.16 20.88Q187.24 19.19 188.77 18.29L188.77 18.29L188.77 18.29Q190.30 17.39 191.70 17.39L191.70 17.39L191.70 17.39Q193.61 17.39 194.65 18.56L194.65 18.56L194.65 18.56Q195.70 19.73 195.70 21.60L195.70 21.60L195.70 21.60Q195.70 22.25 194.96 25.83L194.96 25.83L194.96 25.83Q194.22 29.41 194.22 30.24L194.22 30.24L194.22 30.24Q194.22 31.68 195.44 32.40L195.44 32.40L195.44 32.40Q195.01 33.70 193.97 34.42L193.97 34.42L193.97 34.42Q192.92 35.14 191.70 35.14L191.70 35.14L191.70 35.14Q190.40 35.14 189.50 34.33L189.50 34.33L189.50 34.33Q188.60 33.52 188.60 32.11L188.60 32.11L188.60 32.11Q188.60 30.96 189.29 27.49L189.29 27.49L189.29 27.49Q189.97 24.01 189.97 22.68L189.97 22.68L189.97 22.68Q189.97 20.66 188.78 20.66L188.78 20.66L188.78 20.66Q187.92 20.66 186.86 22.18L186.86 22.18L186.86 22.18Q185.80 23.69 185.33 25.67ZM198.76 14.69L198.76 14.69L198.76 14.69Q198.68 14.04 198.68 13.46L198.68 13.46L198.68 13.46Q198.68 11.09 200.48 11.02L200.48 11.02L200.48 11.02Q201.31 10.98 203.98 10.98L203.98 10.98L210.42 10.98L210.42 10.98Q215.42 10.98 216.58 10.87L216.58 10.87L216.58 10.87Q216.68 12.17 216.68 12.24L216.68 12.24L216.68 12.24Q216.68 14.47 214.92 14.51L214.92 14.51L214.92 14.51Q213.88 14.54 210.24 14.54L210.24 14.54L210.24 14.54Q210.02 16.02 209.59 19.08L209.59 19.08L209.59 19.08Q209.16 22.14 208.96 23.60L208.96 23.60L208.96 23.60Q208.76 25.06 208.51 27.07L208.51 27.07L208.51 27.07Q208.26 29.09 208.15 30.35L208.15 30.35L208.15 30.35Q208.04 31.61 208.04 32.44L208.04 32.44L208.04 32.44Q208.04 33.59 208.19 34.49L208.19 34.49L208.19 34.49Q207.00 34.88 204.95 34.88L204.95 34.88L204.95 34.88Q203.44 34.88 202.79 34.34L202.79 34.34L202.79 34.34Q202.14 33.80 202.14 32.65L202.14 32.65L202.14 32.65Q202.14 32.26 202.54 29.54L202.54 29.54L202.54 29.54Q202.93 26.82 203.51 22.46L203.51 22.46L203.51 22.46Q204.08 18.11 204.44 14.62L204.44 14.62L204.44 14.62Q200.30 14.62 198.76 14.69ZM221.58 26.06L221.58 26.06L221.58 26.06Q223.02 26.06 223.85 24.86L223.85 24.86L223.85 24.86Q224.68 23.65 224.68 22.07L224.68 22.07L224.68 22.07Q224.68 21.42 224.32 20.99L224.32 20.99L224.32 20.99Q223.96 20.56 223.49 20.56L223.49 20.56L223.49 20.56Q222.62 20.56 221.92 22.05L221.92 22.05L221.92 22.05Q221.22 23.54 221.04 26.03L221.04 26.03L221.04 26.03Q221.22 26.06 221.58 26.06ZM226.94 29.95L226.94 29.95L226.94 29.95Q227.74 30.35 228.29 30.96L228.29 30.96L228.29 30.96Q228.85 31.57 228.85 32.18L228.85 32.18L228.85 32.18Q228.85 33.44 227.00 34.29L227.00 34.29L227.00 34.29Q225.14 35.14 222.73 35.14L222.73 35.14L222.73 35.14Q219.64 35.14 217.42 33.61L217.42 33.61L217.42 33.61Q215.21 32.08 215.21 28.87L215.21 28.87L215.21 28.87Q215.21 24.34 218.11 20.83L218.11 20.83L218.11 20.83Q221.00 17.32 225.50 17.32L225.50 17.32L225.50 17.32Q227.56 17.32 228.98 18.47L228.98 18.47L228.98 18.47Q230.40 19.62 230.40 21.64L230.40 21.64L230.40 21.64Q230.40 24.84 228.01 26.62L228.01 26.62L228.01 26.62Q225.61 28.40 221.98 28.40L221.98 28.40L221.98 28.40Q221.54 28.40 220.90 28.33L220.90 28.33L220.90 28.33Q220.90 31.90 223.74 31.90L223.74 31.90L223.74 31.90Q225.61 31.90 226.94 29.95ZM242.10 23.11L242.10 23.11L242.10 23.11Q241.96 22.00 241.36 21.38L241.36 21.38L241.36 21.38Q240.77 20.77 239.94 20.77L239.94 20.77L239.94 20.77Q239.11 20.77 238.48 21.26L238.48 21.26L238.48 21.26Q237.85 21.74 237.85 22.68L237.85 22.68L237.85 22.68Q237.85 23.40 238.55 23.83L238.55 23.83L238.55 23.83Q239.26 24.26 240.26 24.52L240.26 24.52L240.26 24.52Q241.27 24.77 242.28 25.15L242.28 25.15L242.28 25.15Q243.29 25.52 243.99 26.42L243.99 26.42L243.99 26.42Q244.69 27.32 244.69 28.76L244.69 28.76L244.69 28.76Q244.69 31.61 242.41 33.37L242.41 33.37L242.41 33.37Q240.12 35.14 237.06 35.14L237.06 35.14L237.06 35.14Q231.30 35.14 231.30 32.44L231.30 32.44L231.30 32.44Q231.30 30.38 234.47 29.09L234.47 29.09L234.47 29.09Q234.68 30.38 235.53 31.03L235.53 31.03L235.53 31.03Q236.38 31.68 237.42 31.68L237.42 31.68L237.42 31.68Q238.50 31.68 239.22 31.23L239.22 31.23L239.22 31.23Q239.94 30.78 239.94 29.81L239.94 29.81L239.94 29.81Q239.94 29.20 239.24 28.84L239.24 28.84L239.24 28.84Q238.54 28.48 237.53 28.22L237.53 28.22L237.53 28.22Q236.52 27.97 235.53 27.58L235.53 27.58L235.53 27.58Q234.54 27.18 233.84 26.23L233.84 26.23L233.84 26.23Q233.14 25.27 233.14 23.80L233.14 23.80L233.14 23.80Q233.14 21.06 235.40 19.19L235.40 19.19L235.40 19.19Q237.67 17.32 240.59 17.32L240.59 17.32L240.59 17.32Q241.74 17.32 242.84 17.57L242.84 17.57L242.84 17.57Q243.94 17.82 244.85 18.50L244.85 18.50L244.85 18.50Q245.77 19.19 245.77 20.20L245.77 20.20L245.77 20.20Q245.77 22.50 242.10 23.11ZM249.23 17.68L249.23 17.68L250.42 17.68L250.42 17.68Q250.52 17.03 250.70 15.62L250.70 15.62L250.70 15.62Q250.88 14.22 250.88 14.11L250.88 14.11L250.88 14.11Q251.96 13.90 253.33 13.90L253.33 13.90L253.33 13.90Q254.99 13.90 255.58 14.20L255.58 14.20L255.58 14.20Q256.18 14.51 256.18 15.34L256.18 15.34L256.18 15.34Q256.18 15.91 255.85 17.71L255.85 17.71L255.85 17.71Q259.96 17.71 261.47 17.53L261.47 17.53L261.47 17.53Q261.65 18.18 261.65 18.86L261.65 18.86L261.65 18.86Q261.65 20.88 259.85 21.02L259.85 21.02L259.85 21.02Q258.66 21.10 255.31 21.10L255.31 21.10L255.31 21.10Q254.12 29.52 254.12 30.35L254.12 30.35L254.12 30.35Q254.12 31.25 254.66 31.72L254.66 31.72L254.66 31.72Q255.20 32.18 256.03 32.18L256.03 32.18L256.03 32.18Q257.47 32.18 258.41 31.07L258.41 31.07L258.41 31.07Q259.38 32.04 259.38 33.05L259.38 33.05L259.38 33.05Q259.38 35.14 254.92 35.14L254.92 35.14L254.92 35.14Q251.75 35.14 250.31 33.91L250.31 33.91L250.31 33.91Q248.87 32.69 248.87 30.28L248.87 30.28L248.87 30.28Q248.87 29.59 249.05 28.13L249.05 28.13L249.05 28.13Q249.23 26.68 249.59 24.32L249.59 24.32L249.59 24.32Q249.95 21.96 250.06 21.10L250.06 21.10L250.06 21.10Q249.59 21.10 247.21 21.31L247.21 21.31L247.21 21.31Q247.14 20.74 247.14 20.34L247.14 20.34L247.14 20.34Q247.14 17.68 249.23 17.68Z" transform="rotate(0 130.64498960971832 21.65000057220459)"></path><defs id="SvgjsDefs1010"></defs></svg></g></svg>